<svg xmlns="http://www.w3.org/2000/svg" viewBox="0 0 32 32" fill="none" role="img" aria-label="SafeTube">
  <rect width="32" height="32" rx="7" fill="#09090b"/>
  <path
    d="M16 5.5c-4.5 0-8.2 3-9.3 7.1-.3 1-.2 2.1.6 3l1 1.3v6.2c0 1.4 1.2 2.6 2.6 2.6h10.2c1.4 0 2.6-1.2 2.6-2.6v-6.2l1-1.3c.8-.9 1-2 .6-3C24.2 8.5 20.5 5.5 16 5.5Z"
    stroke="#FF0000"
    stroke-width="1.4"
    fill="none"
    stroke-linejoin="round"
  />
  <path d="M13.4 11.8 20.9 16 13.4 20.2V11.8Z" fill="#FF0000"/>
  <path
    d="M14.9 13.4c1.1-.6 2.5.1 2.5 1.3v3.2c0 1.2-1.4 1.9-2.5 1.3-1.1-.6-1.1-1.5 0-2.1"
    fill="#09090b"
  />
</svg>
