<svg xmlns="http://www.w3.org/2000/svg" viewBox="0 0 512 512" fill="none" role="img" aria-label="SafeTube">
  <rect width="512" height="512" fill="#09090b"/>
  <path
    d="M256 88c-72 0-131 48-149 114-4 16-2 34 9 48l16 21v99c0 23 19 42 42 42h164c23 0 42-19 42-42V271l16-21c11-14 13-32 9-48-18-66-77-114-149-114Z"
    stroke="#FF0000"
    stroke-width="22"
    fill="none"
    stroke-linejoin="round"
  />
  <path d="M214 188 334 256 214 324V188Z" fill="#FF0000"/>
  <path
    d="M238 214c18-10 40 2 40 22v40c0 20-22 32-40 22s-40-18-40-38 22-28 40-38"
    fill="#09090b"
  />
</svg>
